<svg width="422" height="156" viewBox="0 0 422 156" fill="#929292" xmlns="http://www.w3.org/2000/svg">
<path fill-rule="evenodd" clip-rule="evenodd" d="M41.2931 70.2815C42.0625 65.5648 43.0761 60.9529 44.5231 56.5267C31.4281 30.5389 40.9252 11.603 53.6311 4.1338C63.5817 -1.71549 76.3015 -1.37809 84.3639 5.27875C88.5204 8.71055 91.7296 13.8225 92.1026 20.6325C103.276 20.8889 111.511 24.7834 116.917 30.7835C120.7 34.9822 123.114 40.0953 123.738 45.7317C125.158 58.5434 117.382 72.6799 100.795 75.8337L100.596 75.19C116.545 71.9602 124.149 58.4268 122.556 45.6724C122.068 41.7626 120.756 37.8423 118.584 34.5384C113.336 26.5573 103.233 21.6445 92.4243 21.669C92.3799 21.6688 92.2907 21.6252 92.2907 21.6695C92.2804 33.4376 85.0387 39.5726 73.1117 42.1215L70.8543 41.0845C84.0303 39.5816 91.2795 33.2842 91.1601 21.7042C81.8936 21.5089 72.746 24.3449 64.8023 30.1556C56.8706 35.9572 50.1384 44.7241 45.6852 56.3999C50.1906 63.6394 56.0239 69.1818 64.0135 71.9696L63.9409 73.167C56.1289 70.1179 49.7836 65.1832 45.3589 57.7791C43.7148 62.2982 42.7324 67.148 42.0563 72.1508L41.2931 70.2815ZM91.1206 20.5528C90.4153 5.52459 74.8775 -1.42332 62.3826 1.70286C56.336 3.21548 50.2235 6.91746 45.9764 12.3899C38.3402 22.2288 35.921 37.6308 44.9925 55.1766C49.6237 44.1735 55.6781 35.9912 63.011 30.3442C70.9449 24.2337 79.6139 21.0547 91.1206 20.5528Z" fill="white"/>
<path fill-rule="evenodd" clip-rule="evenodd" d="M45.323 104.735L46.158 103.7C49.0725 111.041 53.5299 118.095 59.4956 123.68C59.4415 121.721 59.177 115.429 60.1871 114.026C61.2723 112.519 63.1288 113.056 62.6714 116.204C61.9372 118.937 61.6633 122.115 61.7277 125.677C72.5087 133.757 84.1177 135.366 93.6189 133.95C105.861 132.126 116.203 125.073 119.393 112.604C122.133 101.897 120.137 88.618 114.099 84.7921L101.324 76.8426L102.613 76.389C124.944 82.4792 134.743 99.4578 134.382 116.082C133.963 135.37 120.546 151.241 101.599 154.639C98.6128 155.175 95.5813 155.379 92.5785 155.249C76.412 154.547 61.2677 144.346 59.5521 125.076C53.24 119.409 48.6349 112.531 45.323 104.735ZM110.613 80.0703C124.08 87.1937 130.244 96.6628 132.49 106.148C134.299 113.784 133.696 121.406 131.345 128.017C129.64 132.811 127.102 136.917 124.514 140.138C120.796 144.765 117.354 147.428 112.048 149.941C107.186 152.245 100.414 154.477 93.2685 154.307C78.396 153.954 62.3744 144.307 61.7456 126.942C72.1026 134.314 83.8661 137.166 96.4524 134.681C101.181 133.747 105.633 131.953 109.415 129.136C113.196 126.319 116.114 122.793 118.177 118.886C120.026 115.388 120.973 111.583 121.464 107.708C122.834 96.8787 120.027 86.6273 110.613 80.0703Z" fill="white"/>
<path fill-rule="evenodd" clip-rule="evenodd" d="M43.2362 71.5099C47.9812 76.0958 50.3451 83.0769 50.3451 90.2039C50.3451 95.7157 48.9494 101.164 45.9543 105.313C37.4323 117.118 18.2736 118.871 7.67679 109.093C2.68293 104.485 0 97.5414 0 90.2039C0 82.9047 2.76923 76.1775 7.71703 71.5728C16.9964 62.9372 34.092 62.6725 43.2362 71.5099ZM35.4635 75.8681C38.2126 79.3204 39.5133 84.7392 39.5133 90.205C39.5133 94.4323 39.0449 98.9151 37.3385 102.097C32.4836 111.151 21.2422 112.191 15.2052 104.692C12.3604 101.158 10.5922 95.8545 10.5922 90.2268C10.5922 84.629 11.7991 79.1213 14.662 75.6548C19.9158 69.2933 30.2285 69.2937 35.4635 75.8681Z" fill="white"/>
<path fill-rule="evenodd" clip-rule="evenodd" d="M166.978 71.5099C171.723 76.0958 174.087 83.0769 174.087 90.2039C174.087 95.7157 172.691 101.164 169.696 105.313C161.173 117.118 142.015 118.871 131.418 109.093C126.424 104.485 123.742 97.5414 123.742 90.2039C123.742 82.9047 126.511 76.1775 131.459 71.5728C140.738 62.9372 157.833 62.6725 166.978 71.5099ZM159.205 75.8681C161.954 79.3204 163.255 84.7392 163.255 90.205C163.255 94.4323 162.786 98.9151 161.08 102.097C156.225 111.151 144.983 112.191 138.946 104.692C136.102 101.158 134.333 95.8545 134.333 90.2268C134.333 84.629 135.541 79.1213 138.403 75.6548C143.657 69.2933 153.97 69.2937 159.205 75.8681Z" fill="white"/>
<path fill-rule="evenodd" clip-rule="evenodd" d="M414.001 71.5099C418.746 76.0958 421.109 83.0769 421.109 90.2039C421.109 95.7157 419.714 101.164 416.718 105.313C408.197 117.118 389.038 118.871 378.441 109.093C373.447 104.485 370.764 97.5414 370.764 90.2039C370.764 82.9047 373.533 76.1775 378.481 71.5728C387.761 62.9372 404.856 62.6725 414.001 71.5099ZM406.227 75.8681C408.976 79.3204 410.277 84.7392 410.277 90.205C410.278 94.4323 409.809 98.9151 408.102 102.097C403.248 111.151 392.006 112.191 385.969 104.692C383.124 101.158 381.356 95.8545 381.356 90.2268C381.356 84.629 382.563 79.1213 385.426 75.6548C390.68 69.2933 400.992 69.2937 406.227 75.8681Z" fill="white"/>
<path fill-rule="evenodd" clip-rule="evenodd" d="M213.893 66.2185H224.432V113.951H213.893V66.2185Z" fill="white"/>
<path fill-rule="evenodd" clip-rule="evenodd" d="M352.517 66.2185H363.057V113.951H352.517V66.2185Z" fill="white"/>
<path fill-rule="evenodd" clip-rule="evenodd" d="M347.711 66.2386L347.727 72.272C342.509 70.9716 338.375 71.1712 335.885 73.2351C334.625 74.279 333.785 75.8004 333.437 77.846C333.243 78.9935 333.267 80.0467 333.267 81.2002L333.268 113.951H322.728V82.6808C322.728 77.5076 324.356 72.0813 328.634 68.8388C333.091 65.4604 339.721 64.9517 347.711 66.2386Z" fill="white"/>
<path fill-rule="evenodd" clip-rule="evenodd" d="M208.193 114.096L206.859 108.803C201.64 110.104 197.508 109.904 195.017 107.84C193.757 106.796 192.917 105.275 192.569 103.229C192.375 102.081 192.4 101.028 192.4 99.875V72.4473H207.575V66.2632H192.4V58.0751C192.536 51.9392 188.503 50.0614 181.86 50.7487L181.86 98.3945C181.86 103.568 183.488 108.994 187.766 112.236C192.223 115.615 199.55 116.167 208.193 114.096Z" fill="white"/>
<path fill-rule="evenodd" clip-rule="evenodd" d="M270.192 112.817C260.562 116.907 246.697 115.752 240.046 110.42C234.782 106.201 231.877 99.3213 231.877 90.2038C231.877 82.9047 234.646 76.1771 239.594 71.5728C247.031 64.6516 259.67 63.1814 268.849 66.7742V73.1913C262.819 70.0057 253.913 69.874 248.369 74.5013C244.232 77.9549 242.699 83.8973 242.751 89.8669C242.8 95.4289 244.183 101.013 247.256 104.692C250.286 108.319 255.313 109.586 260.247 109.276C263.311 109.084 265.935 108.511 268.444 106.939L270.192 112.817Z" fill="white"/>
<path fill-rule="evenodd" clip-rule="evenodd" d="M277.405 73.6952L277.399 67.3857C291.401 63.2012 298.668 57.4386 303.522 51.0516L312.069 51.0515C308.555 56.8604 302.036 61.6307 293.881 65.3007C298.789 65.2994 302.914 66.0615 306.152 67.6881C310.457 69.8508 313.195 73.5415 314.124 78.9941C314.509 81.2545 314.475 83.3774 314.475 85.648V114.528C313.916 114.528 313.35 114.525 312.834 114.528C307.859 114.554 304.921 112.851 304.522 108.817L304.522 108.818C300.253 113.56 294.737 115.388 289.504 115.38C284.135 115.371 279.791 114.008 277.005 111.456C274.216 108.902 272.957 105.41 272.871 101.799C272.779 97.9869 274.013 94.0439 276.86 91.0148C277.888 89.9212 279.175 89.0517 280.582 88.2857C284.65 86.0708 289.635 84.8192 295.583 84.8413L304.232 84.8733L304.237 81.9102C304.24 79.7037 303.763 77.5061 302.498 75.6711C301.411 74.0943 299.914 72.8362 298.276 72.0813C293.422 69.845 286.094 70.758 277.405 73.6952H277.405ZM304.227 90.5685L297.286 90.5455C293.324 90.5306 288.832 91.1955 285.967 93.5646C283.919 95.2575 282.972 97.819 283.052 101.182C283.141 104.882 284.696 107.379 287.294 108.729C288.485 109.347 289.811 109.635 291.182 109.65C296.238 109.707 301.687 106.417 303.494 101.632C303.917 100.514 304.197 99.3774 304.202 97.8792L304.227 90.5685Z" fill="white"/>
<path fill-rule="evenodd" clip-rule="evenodd" d="M69.2356 47.2484H68.9776H68.6158H68.2436H67.8615H67.4683C67.4144 47.2497 67.3608 47.2503 67.3075 47.2503L67.2855 47.2504C67.2344 47.2504 67.1831 47.25 67.1323 47.2491L67.1076 47.2485L66.9606 47.244L66.9541 47.2438H66.9528L66.943 47.2434C66.8959 47.2414 66.8488 47.2389 66.8023 47.2357L66.7754 47.2345C66.7273 47.2312 66.6794 47.2277 66.632 47.2236L66.6045 47.221L66.4686 47.2071L66.4618 47.2066L66.4598 47.2062L66.4489 47.2049L66.3146 47.1879L66.2897 47.1847L66.1585 47.1652L66.1272 47.1606C66.0822 47.153 66.0368 47.1451 65.9922 47.1368L65.9897 47.1361L65.9803 47.1342L65.8607 47.1103L65.8236 47.1025L65.7087 47.0763L65.6639 47.0654C65.6246 47.0558 65.5852 47.0459 65.5463 47.0353L65.5431 47.034C65.5017 47.0228 65.4612 47.0112 65.4208 46.9991L65.386 46.9889C65.3482 46.9773 65.3105 46.9656 65.2732 46.9533L65.2354 46.9405L65.1509 46.9116L65.0929 46.8906L65.0019 46.8562L64.9737 46.845L64.8751 46.8046L64.8246 46.7831L64.7262 46.7391L64.7217 46.7365L64.7 46.7264L64.6252 46.6905L64.5794 46.6678L64.5743 46.6652L64.4997 46.6266L64.492 46.6221L64.4393 46.5939L64.3962 46.5694L64.3068 46.518L64.261 46.4903L64.2144 46.4618L64.2111 46.4598L64.1416 46.4153L64.1348 46.4107L64.0841 46.3772L64.0431 46.3492L63.962 46.2916L63.9198 46.2605L63.877 46.2287L63.8738 46.2261L63.8096 46.1757L63.807 46.1738L63.7516 46.1288L63.7311 46.1113C63.6981 46.084 63.6657 46.056 63.6336 46.0277L63.616 46.0117L63.5629 45.9635L63.5039 45.9076L63.4515 45.8564L63.4323 45.8369C63.4023 45.8063 63.3724 45.7756 63.3432 45.7441L63.325 45.7247C63.2734 45.6685 63.223 45.611 63.1742 45.5518L63.1652 45.5406C63.1373 45.5068 63.1103 45.4728 63.0834 45.4379L63.0596 45.407C63.014 45.3471 62.9697 45.2857 62.9268 45.2229L62.9216 45.2152C62.8456 45.1031 62.774 44.9865 62.707 44.8657C62.1228 43.8138 61.8868 42.4445 62.0552 40.8187H88.425C88.4513 40.8187 88.4797 40.82 88.509 40.8213C95.0549 40.7608 101.601 42.3643 106.152 45.7035C110.833 49.1384 113.165 54.3673 113.165 59.7054C113.165 63.834 111.788 67.9146 108.833 71.0222C106.911 73.0441 104.438 74.6713 101.645 75.8926C104.865 76.8359 107.819 78.2486 110.253 80.1428C115.384 84.1369 117.939 90.2171 117.939 96.4241C117.939 101.225 116.431 105.97 113.192 109.584C103.977 119.865 83.26 121.392 71.8015 112.876C67.8379 109.93 65.2208 105.888 64.1086 101.419L64.1073 101.415C63.0094 97.5756 62.6678 91.9795 62.6678 89.9058V52.9304C65.331 52.738 68.1515 52.5922 70.268 53.8589C73.131 55.5722 73.5673 59.0474 73.5632 62.0788L73.5298 90.3814C73.5853 96.2643 74.916 101.07 77.0471 104.693C78.763 107.609 81.1386 109.735 84.2676 110.96C89.3349 112.943 96.7227 112.476 101.142 109.249C106.025 105.684 106.483 99.6725 106.443 96.0125C106.404 92.4009 105.565 86.8283 100.621 83.372C98.1959 81.6762 94.7278 80.2718 89.9911 80.2938L80.3613 80.2977L80.3615 73.221L90.8991 73.2229C91.8338 73.2231 92.8366 72.808 93.5408 72.664C95.1238 72.34 96.4589 71.6345 97.7161 70.6241C101.182 67.8382 102.274 62.0871 102.02 58.6565C101.584 52.7582 98.1547 47.2494 85.433 47.2494L69.2356 47.2484Z" fill="white"/>
</svg>
